<?xml version="1.0" encoding="UTF-8"?>
<!DOCTYPE svg PUBLIC "-//W3C//DTD SVG 1.1//EN" "http://www.w3.org/Graphics/SVG/1.1/DTD/svg11.dtd">
<svg xmlns="http://www.w3.org/2000/svg" version="1.1" width="511px" height="511px" style="shape-rendering:geometricPrecision; text-rendering:geometricPrecision; image-rendering:optimizeQuality; fill-rule:evenodd; clip-rule:evenodd" xmlns:xlink="http://www.w3.org/1999/xlink">
<g><path style="opacity:0.992" fill="#ebebeb" d="M 232.5,-0.5 C 247.5,-0.5 262.5,-0.5 277.5,-0.5C 353.52,7.75086 414.687,42.0842 461,102.5C 488.98,141.46 505.48,184.793 510.5,232.5C 510.5,247.167 510.5,261.833 510.5,276.5C 500.368,364.98 457.368,432.146 381.5,478C 348.877,495.821 314.211,506.655 277.5,510.5C 262.5,510.5 247.5,510.5 232.5,510.5C 151.78,501.407 88.28,463.74 42,397.5C 17.9708,360.577 3.80413,320.243 -0.5,276.5C -0.5,261.833 -0.5,247.167 -0.5,232.5C 9.92391,144.436 52.9239,77.6029 128.5,32C 161.093,14.0272 195.76,3.19385 232.5,-0.5 Z"/></g>
<g><path style="opacity:1" fill="#151516" d="M 245.5,42.5 C 256.332,40.9645 266.332,43.1312 275.5,49C 326.167,78.3333 376.833,107.667 427.5,137C 435.772,142.71 440.605,150.543 442,160.5C 442.667,223.167 442.667,285.833 442,348.5C 440.584,358.51 435.75,366.343 427.5,372C 374.336,402.414 321.336,433.081 268.5,464C 258.316,467.654 248.316,467.32 238.5,463C 186.33,432.414 133.997,402.081 81.5,372C 73.2497,366.343 68.4164,358.51 67,348.5C 66.3333,285.833 66.3333,223.167 67,160.5C 68.9972,148.334 75.4972,139.5 86.5,134C 139.595,103.459 192.595,72.9593 245.5,42.5 Z"/></g>
<g><path style="opacity:1" fill="#ebebeb" d="M 249.5,133.5 C 255.533,132.965 261.199,134.132 266.5,137C 295.167,153.667 323.833,170.333 352.5,187C 356.491,189.989 359.324,193.822 361,198.5C 361.667,235.833 361.667,273.167 361,310.5C 358.608,316.226 354.774,320.726 349.5,324C 321.67,339.747 294.003,355.747 266.5,372C 258.5,376.667 250.5,376.667 242.5,372C 214.997,355.747 187.33,339.747 159.5,324C 154.226,320.726 150.392,316.226 148,310.5C 147.333,273.167 147.333,235.833 148,198.5C 151.5,191 157,185.5 164.5,182C 192.928,165.792 221.261,149.626 249.5,133.5 Z"/></g>
</svg>
